<svg xmlns="http://www.w3.org/2000/svg" width="100" height="40" viewBox="0 0 100 40">
  <g>
    <path d="m22.5,17.63c-1.04,0-1.93-.2-2.67-.61-.74-.41-1.31-.99-1.71-1.74-.4-.75-.6-1.64-.6-2.66s.2-1.9.6-2.65c.4-.75.97-1.32,1.71-1.73.74-.41,1.63-.61,2.67-.61.67,0,1.31.1,1.91.3.6.2,1.09.49,1.48.87l-.6,1.41c-.43-.35-.86-.6-1.31-.77-.44-.16-.92-.24-1.43-.24-1.01,0-1.78.3-2.31.89-.53.59-.79,1.44-.79,2.53s.26,1.94.79,2.54c.53.6,1.3.9,2.31.9.51,0,.99-.08,1.43-.24.44-.16.88-.42,1.31-.77l.6,1.41c-.39.37-.88.66-1.48.86-.6.21-1.24.31-1.91.31Z" style="fill: #fdfdfd; stroke-width: 0px;"/>
    <path d="m30.47,17.63c-.72,0-1.34-.14-1.87-.43-.53-.29-.94-.69-1.23-1.22-.29-.53-.44-1.15-.44-1.87s.15-1.34.44-1.86c.29-.52.7-.93,1.23-1.21.53-.28,1.15-.43,1.87-.43s1.34.14,1.87.43c.53.29.94.69,1.23,1.21.29.52.44,1.15.44,1.86s-.15,1.34-.44,1.87c-.29.53-.7.94-1.23,1.22-.53.29-1.15.43-1.87.43Zm0-1.31c.53,0,.96-.19,1.28-.56.32-.37.48-.92.48-1.65s-.16-1.29-.48-1.65c-.32-.36-.75-.55-1.28-.55s-.96.18-1.28.55c-.32.36-.48.91-.48,1.65s.16,1.28.48,1.65c.32.37.75.56,1.28.56Z" style="fill: #fdfdfd; stroke-width: 0px;"/>
    <path d="m37.89,17.63c-.82,0-1.43-.22-1.82-.66-.39-.44-.59-1.08-.59-1.92v-7.29h1.77v7.2c0,.27.04.49.12.68.08.19.2.33.36.42.16.09.36.14.6.14.1,0,.21,0,.31-.01.1,0,.2-.03.3-.06l-.03,1.37c-.17.04-.34.07-.5.09-.17.02-.34.03-.52.03Z" style="fill: #fdfdfd; stroke-width: 0px;"/>
    <path d="m43.17,17.63c-.72,0-1.34-.14-1.87-.43-.53-.29-.94-.69-1.23-1.22-.29-.53-.44-1.15-.44-1.87s.15-1.34.44-1.86c.29-.52.7-.93,1.23-1.21.53-.28,1.15-.43,1.87-.43s1.34.14,1.87.43c.53.29.94.69,1.23,1.21.29.52.44,1.15.44,1.86s-.15,1.34-.44,1.87c-.29.53-.7.94-1.23,1.22-.53.29-1.15.43-1.87.43Zm0-1.31c.53,0,.96-.19,1.28-.56.32-.37.48-.92.48-1.65s-.16-1.29-.48-1.65c-.32-.36-.75-.55-1.28-.55s-.96.18-1.28.55c-.32.36-.48.91-.48,1.65s.16,1.28.48,1.65c.32.37.75.56,1.28.56Z" style="fill: #fdfdfd; stroke-width: 0px;"/>
    <path d="m48.21,17.49v-6.75h1.73v1.35h-.16c.12-.31.29-.58.51-.8.22-.22.48-.39.78-.51.3-.12.64-.18,1.01-.18.56,0,1.02.13,1.38.39.36.26.61.65.75,1.19h-.2c.19-.49.5-.87.94-1.15.43-.28.94-.42,1.5-.42.53,0,.97.1,1.31.3.35.2.6.51.77.92.17.41.26.93.26,1.55v4.11h-1.77v-4.04c0-.52-.09-.89-.26-1.13-.18-.24-.47-.36-.89-.36-.3,0-.57.07-.79.21-.23.14-.4.35-.52.61-.12.27-.18.59-.18.97v3.74h-1.77v-4.04c0-.52-.09-.89-.26-1.13-.18-.24-.47-.36-.87-.36-.31,0-.58.07-.8.21-.22.14-.39.35-.51.61-.12.27-.18.59-.18.97v3.74h-1.77Z" style="fill: #fdfdfd; stroke-width: 0px;"/>
    <path d="m64.62,17.63c-.59,0-1.1-.14-1.54-.43-.44-.29-.73-.67-.87-1.15h.14v1.44h-1.73V7.77h1.77v4.35h-.17c.15-.45.44-.81.88-1.09.43-.28.94-.41,1.52-.41.61,0,1.15.14,1.6.43.45.29.81.69,1.06,1.21.26.52.38,1.14.38,1.87s-.13,1.34-.38,1.87c-.26.53-.61.94-1.07,1.22-.46.29-.99.43-1.6.43Zm-.5-1.31c.53,0,.96-.19,1.28-.56.32-.37.48-.92.48-1.65s-.16-1.29-.48-1.65c-.32-.36-.75-.55-1.28-.55s-.96.18-1.28.55c-.32.36-.48.91-.48,1.65s.16,1.28.48,1.65c.32.37.75.56,1.28.56Z" style="fill: #fdfdfd; stroke-width: 0px;"/>
    <path d="m69.02,9.3v-1.68h1.99v1.68h-1.99Zm.11,8.2v-6.75h1.77v6.75h-1.77Z" style="fill: #fdfdfd; stroke-width: 0px;"/>
    <path d="m75.03,17.63c-.5,0-.95-.09-1.34-.28-.39-.19-.7-.44-.92-.77-.22-.32-.33-.69-.33-1.09,0-.5.13-.89.4-1.18.26-.29.7-.5,1.29-.63.6-.13,1.4-.19,2.4-.19h.71v.99h-.7c-.44,0-.82.02-1.12.05-.3.03-.55.08-.73.15-.18.07-.32.16-.4.28-.08.12-.12.27-.12.44,0,.3.11.55.33.75.22.19.52.29.91.29.31,0,.59-.07.83-.21.24-.14.43-.34.57-.59.14-.25.21-.53.21-.86v-1.59c0-.46-.1-.79-.31-.99-.21-.2-.56-.3-1.05-.3-.39,0-.79.06-1.19.17-.41.12-.82.29-1.23.53l-.51-1.17c.25-.17.54-.31.87-.43.34-.12.69-.22,1.06-.29.37-.07.73-.1,1.06-.1.68,0,1.24.1,1.68.3.44.2.77.51.99.92.22.41.33.94.33,1.58v4.08h-1.66v-1.44h.11c-.07.32-.2.6-.39.83-.19.23-.44.42-.73.55-.29.13-.63.19-1.01.19Z" style="fill: #fdfdfd; stroke-width: 0px;"/>
    <path d="m25.51,28.2v-9.73h4.34c.74,0,1.36.12,1.87.36.51.24.9.58,1.16,1.03.26.45.4,1,.4,1.64s-.13,1.18-.4,1.64c-.26.46-.65.81-1.16,1.05-.51.24-1.13.37-1.87.37h-2.53v3.64h-1.82Zm1.82-5.04h2.24c.64,0,1.13-.14,1.46-.42.33-.28.5-.69.5-1.23s-.17-.95-.5-1.23c-.33-.28-.82-.41-1.46-.41h-2.24v3.3Z" style="fill: #fdfdfd; stroke-width: 0px;"/>
    <path d="m34.59,28.2v-6.75h1.73v1.63h-.14c.13-.55.39-.97.78-1.26.39-.29.9-.46,1.55-.5l.54-.04.11,1.46-1.02.1c-.58.06-1.01.23-1.31.52-.29.29-.44.7-.44,1.22v3.63h-1.8Z" style="fill: #fdfdfd; stroke-width: 0px;"/>
    <path d="m43.31,28.34c-.72,0-1.34-.14-1.87-.43-.53-.29-.94-.69-1.23-1.22-.29-.53-.44-1.15-.44-1.87s.15-1.34.44-1.86c.29-.52.7-.93,1.23-1.21.53-.28,1.15-.43,1.87-.43s1.34.14,1.87.43c.53.29.94.69,1.23,1.21.29.52.44,1.15.44,1.86s-.15,1.34-.44,1.87c-.29.53-.7.94-1.23,1.22-.53.29-1.15.43-1.87.43Zm0-1.31c.53,0,.96-.19,1.28-.56.32-.37.48-.92.48-1.65s-.16-1.29-.48-1.65c-.32-.36-.75-.55-1.28-.55s-.96.18-1.28.55c-.32.36-.48.91-.48,1.65s.16,1.28.48,1.65c.32.37.75.56,1.28.56Z" style="fill: #fdfdfd; stroke-width: 0px;"/>
    <path d="m51.55,30.82c-.64,0-1.25-.07-1.81-.21-.56-.14-1.06-.36-1.48-.66l.51-1.2c.26.17.54.31.84.42.29.11.59.2.89.26.3.06.61.08.91.08.63,0,1.11-.15,1.43-.45.32-.3.48-.74.48-1.33v-1.24h.13c-.14.47-.44.84-.89,1.12-.45.28-.96.42-1.53.42-.62,0-1.17-.14-1.63-.42-.46-.28-.82-.67-1.08-1.18-.26-.51-.38-1.09-.38-1.77s.13-1.26.38-1.76c.26-.5.61-.89,1.08-1.17.46-.28,1.01-.42,1.63-.42.59,0,1.1.14,1.54.42.44.28.73.65.86,1.11h-.11v-1.39h1.73v6.07c0,.73-.13,1.34-.4,1.83-.26.49-.66.86-1.18,1.1-.52.24-1.16.37-1.92.37Zm-.04-4.1c.55,0,.98-.18,1.31-.55.32-.37.48-.87.48-1.5s-.16-1.13-.48-1.5c-.32-.36-.76-.55-1.31-.55s-.98.18-1.31.55c-.32.36-.48.86-.48,1.5s.16,1.14.48,1.5c.32.37.76.55,1.31.55Z" style="fill: #fdfdfd; stroke-width: 0px;"/>
    <path d="m56.89,28.2v-6.75h1.73v1.63h-.14c.13-.55.39-.97.78-1.26.39-.29.9-.46,1.55-.5l.54-.04.11,1.46-1.02.1c-.58.06-1.01.23-1.31.52-.29.29-.44.7-.44,1.22v3.63h-1.8Z" style="fill: #fdfdfd; stroke-width: 0px;"/>
    <path d="m64.73,28.34c-.5,0-.95-.09-1.34-.28-.39-.19-.7-.44-.92-.77-.22-.32-.33-.69-.33-1.09,0-.5.13-.89.4-1.18.26-.29.7-.5,1.29-.63.6-.13,1.4-.19,2.4-.19h.71v.99h-.7c-.44,0-.82.02-1.12.05-.3.03-.55.08-.73.15-.18.07-.32.16-.4.28-.08.12-.12.27-.12.44,0,.3.11.55.33.75.22.19.52.29.91.29.31,0,.59-.07.83-.21.24-.14.43-.34.57-.59.14-.25.21-.53.21-.86v-1.59c0-.46-.1-.79-.31-.99-.21-.2-.56-.3-1.05-.3-.39,0-.79.06-1.19.17-.41.12-.82.29-1.23.53l-.51-1.17c.25-.17.54-.31.87-.43.34-.12.69-.22,1.06-.29.37-.07.73-.1,1.06-.1.68,0,1.24.1,1.68.3.44.2.77.51.99.92.22.41.33.94.33,1.58v4.08h-1.66v-1.44h.11c-.07.32-.2.6-.39.83-.19.23-.44.42-.73.55-.29.13-.63.19-1.01.19Z" style="fill: #fdfdfd; stroke-width: 0px;"/>
    <path d="m70.24,28.2v-6.75h1.73v1.35h-.16c.12-.31.29-.58.51-.8.22-.22.48-.39.78-.51.3-.12.64-.18,1.01-.18.56,0,1.02.13,1.38.39.36.26.61.65.75,1.19h-.2c.19-.49.5-.87.94-1.15.43-.28.94-.42,1.5-.42.53,0,.97.1,1.31.3.35.2.6.51.77.92.17.41.26.93.26,1.55v4.11h-1.77v-4.04c0-.52-.09-.89-.26-1.13-.18-.24-.47-.36-.89-.36-.3,0-.57.07-.79.21-.23.14-.4.35-.52.61-.12.27-.18.59-.18.97v3.74h-1.77v-4.04c0-.52-.09-.89-.26-1.13-.18-.24-.47-.36-.87-.36-.31,0-.58.07-.8.21-.22.14-.39.35-.51.61-.12.27-.18.59-.18.97v3.74h-1.77Z" style="fill: #fdfdfd; stroke-width: 0px;"/>
    <path d="m84.94,28.34c-.5,0-.95-.09-1.34-.28-.39-.19-.7-.44-.92-.77-.22-.32-.33-.69-.33-1.09,0-.5.13-.89.4-1.18.26-.29.7-.5,1.29-.63.6-.13,1.4-.19,2.4-.19h.71v.99h-.7c-.44,0-.82.02-1.12.05-.3.03-.55.08-.73.15-.18.07-.32.16-.4.28-.08.12-.12.27-.12.44,0,.3.11.55.33.75.22.19.52.29.91.29.31,0,.59-.07.83-.21.24-.14.43-.34.57-.59.14-.25.21-.53.21-.86v-1.59c0-.46-.1-.79-.31-.99-.21-.2-.56-.3-1.05-.3-.39,0-.79.06-1.19.17-.41.12-.82.29-1.23.53l-.51-1.17c.25-.17.54-.31.87-.43.34-.12.69-.22,1.06-.29.37-.07.73-.1,1.06-.1.68,0,1.24.1,1.68.3.44.2.77.51.99.92.22.41.33.94.33,1.58v4.08h-1.66v-1.44h.11c-.07.32-.2.6-.39.83-.19.23-.44.42-.73.55-.29.13-.63.19-1.01.19Z" style="fill: #fdfdfd; stroke-width: 0px;"/>
  </g>
  <path d="m92.36,30.85c-.11.11-.22.21-.35.31-.12.1-.26.15-.4.15-.06,0-.11-.01-.16-.03-.04-.02-.08-.05-.12-.09l-.87-.82c-.1-.1-.15-.22-.15-.37,0-.05.01-.12.03-.2.02-.08.05-.14.09-.18l4.35-4.23-4.35-4.23c-.09-.13-.13-.26-.13-.4s.04-.24.13-.33l.84-.79c.1-.1.22-.15.36-.15.02,0,.04,0,.08.01.03,0,.08.02.13.03l.51.37c1.74,1.73,3.49,3.43,5.26,5.12.1.1.15.21.15.33,0,.11-.04.22-.13.35l-5.29,5.14Z" style="fill: #fdfdfd; stroke-width: 0px;"/>
  <g>
    <path d="m2.38,12.82c-.1-.1-.15-.21-.15-.33s.06-.24.17-.35l5.26-5.12c.09-.08.2-.17.33-.27.13-.1.25-.15.37-.15.14,0,.26.05.36.15l.84.79c.1.1.15.21.15.33,0,.06-.01.12-.03.18-.02.06-.05.13-.09.21l-4.37,4.23,4.37,4.23c.04.08.07.15.08.21.02.06.02.12.02.18,0,.14-.05.25-.15.35l-.85.82s-.08.07-.13.09c-.05.02-.11.03-.17.03s-.14,0-.22-.03c-.09-.02-.15-.05-.19-.1l-5.6-5.47Z" style="fill: #fdfdfd; stroke-width: 0px;"/>
    <path d="m16.55,2.42c.09-.19.19-.32.28-.39.1-.07.24-.11.44-.11h1.28c.25,0,.41.04.48.12.07.08.06.23-.03.46-1.16,2.64-2.3,5.27-3.42,7.89-1.12,2.61-2.26,5.25-3.42,7.9-.13.28-.33.42-.59.42h-1.45c-.2,0-.33-.05-.38-.14-.05-.09-.04-.21.02-.36l6.8-15.79Z" style="fill: #fdfdfd; stroke-width: 0px;"/>
  </g>
  <g>
    <path d="m25.99,35.62c.15.08.27.16.34.23.07.08.13.15.16.24s.06.17.06.28c0,.09-.02.21-.05.36l-.06.28c-.03.15-.05.26-.05.34,0,.1.04.18.12.25.08.07.24.1.49.1h.39v.38h-.39c-.46,0-.75-.07-.89-.21-.13-.14-.2-.3-.2-.49,0-.1.01-.2.04-.31l.05-.2.04-.21.03-.13c.01-.06.02-.12.02-.17,0-.15-.05-.28-.16-.39-.1-.11-.29-.16-.55-.16h-.23v-.38h.23c.26,0,.44-.05.55-.16.11-.11.16-.24.16-.4,0-.06,0-.12-.02-.17l-.03-.13-.04-.21-.05-.2c-.02-.11-.04-.22-.04-.31,0-.18.07-.34.2-.49.13-.14.43-.22.89-.22h.39v.38h-.39c-.25,0-.41.03-.49.1-.08.07-.12.15-.12.26,0,.07.02.18.05.33l.06.28c.03.15.05.27.05.36,0,.1-.02.2-.06.28s-.09.16-.16.24c-.07.08-.19.16-.34.23Z" style="fill: #fdfdfd; stroke-width: 0px;"/>
    <path d="m30.11,36.75v.42h-2.1v-3.78h2.06v.38h-1.56v1.28h1.4v.38h-1.4v1.33h1.59Z" style="fill: #fdfdfd; stroke-width: 0px;"/>
    <path d="m33.04,36.75v.42h-2.1v-3.78h.51v3.37h1.59Z" style="fill: #fdfdfd; stroke-width: 0px;"/>
    <path d="m38.86,37.13c-.29.1-.55.16-.78.16-.3,0-.59-.08-.84-.24-.26-.16-.45-.39-.6-.71-.14-.31-.21-.67-.21-1.06s.07-.74.21-1.06c.14-.31.34-.55.59-.71.26-.16.54-.24.85-.24.23,0,.49.05.78.16v.45c-.27-.15-.54-.23-.8-.23-.2,0-.39.07-.55.2-.17.13-.3.33-.4.59-.1.26-.15.54-.15.84s.05.59.16.85c.11.26.24.45.4.58.16.13.34.19.55.19.26,0,.53-.08.8-.23v.45Z" style="fill: #fdfdfd; stroke-width: 0px;"/>
    <path d="m40.56,33.27c.44,0,.78.18,1.01.54.23.36.35.85.35,1.46s-.12,1.1-.35,1.47c-.23.36-.57.54-1.01.54s-.78-.18-1.01-.54c-.23-.36-.35-.85-.35-1.47s.12-1.1.35-1.46c.23-.36.57-.54,1.01-.54Zm-.76,2.82l1.35-2.05c-.09-.15-.18-.25-.28-.31-.1-.05-.2-.08-.31-.08-.28,0-.49.15-.64.45-.15.3-.22.68-.22,1.15,0,.11,0,.22,0,.34,0,.12.04.29.09.5Zm1.51-1.6l-1.34,2.06c.07.12.15.21.25.27s.2.09.31.09c.32,0,.54-.17.68-.52.13-.35.2-.73.2-1.15,0-.26-.03-.51-.1-.75Z" style="fill: #fdfdfd; stroke-width: 0px;"/>
    <path d="m42.29,37.17v-3.78h.92c.43,0,.74.07.95.22.21.14.36.36.46.65.1.29.16.64.16,1.03,0,.38-.05.71-.16.99s-.26.51-.46.66-.51.23-.94.23h-.92Zm.51-.42h.34c.34,0,.59-.06.74-.18.15-.12.25-.28.31-.49.06-.21.09-.5.09-.87s-.04-.64-.11-.84c-.07-.2-.18-.34-.32-.45-.14-.1-.36-.16-.68-.16h-.38v2.99Z" style="fill: #fdfdfd; stroke-width: 0px;"/>
    <path d="m45.22,37.17v-.38h.86v-3.03h-.86v-.38h2.22v.38h-.86v3.03h.86v.38h-2.22Z" style="fill: #fdfdfd; stroke-width: 0px;"/>
    <path d="m50.41,37.17c-.28.08-.53.12-.76.12-.32,0-.61-.08-.87-.23-.25-.16-.45-.39-.6-.71-.14-.31-.22-.67-.22-1.07s.07-.74.21-1.06c.14-.31.34-.55.59-.71.26-.16.54-.24.84-.24.23,0,.49.05.78.16v.45c-.27-.15-.54-.23-.8-.23-.2,0-.38.07-.55.2-.17.13-.3.33-.4.59-.1.26-.15.54-.15.84,0,.41.1.78.29,1.12.19.34.5.5.91.5.05,0,.12,0,.2-.01v-1.22h-.39v-.38h.9v1.87Z" style="fill: #fdfdfd; stroke-width: 0px;"/>
    <path d="m52.11,33.27c.44,0,.78.18,1.01.54.23.36.35.85.35,1.46s-.12,1.1-.35,1.47c-.23.36-.57.54-1.01.54s-.78-.18-1.01-.54c-.23-.36-.35-.85-.35-1.47s.12-1.1.35-1.46c.23-.36.57-.54,1.01-.54Zm-.76,2.82l1.35-2.05c-.09-.15-.18-.25-.28-.31-.1-.05-.2-.08-.31-.08-.28,0-.49.15-.64.45-.15.3-.22.68-.22,1.15,0,.11,0,.22,0,.34,0,.12.04.29.09.5Zm1.51-1.6l-1.34,2.06c.07.12.15.21.25.27s.2.09.31.09c.32,0,.54-.17.68-.52.13-.35.2-.73.2-1.15,0-.26-.03-.51-.1-.75Z" style="fill: #fdfdfd; stroke-width: 0px;"/>
    <path d="m56.88,37.17h-.49l1.2-3.78h.51l1.21,3.78h-.53l-.27-.83h-1.37l-.26.83Zm.38-1.21h1.14l-.47-1.44-.11-.38-.1.38-.46,1.44Z" style="fill: #fdfdfd; stroke-width: 0px;"/>
    <path d="m63.34,37.17v-3.37h-1.17v-.42h2.84v.42h-1.17v3.37h-.51Z" style="fill: #fdfdfd; stroke-width: 0px;"/>
    <path d="m65.25,33.38h.51v2.48c0,.33.03.55.08.67.06.12.14.21.26.27.12.06.25.09.39.09.15,0,.28-.03.4-.1.12-.07.21-.17.26-.32.06-.14.08-.41.08-.81v-2.29h.47v2.47c0,.35-.05.63-.16.83s-.25.35-.42.45c-.17.1-.39.15-.66.15-.24,0-.46-.04-.64-.13-.19-.09-.33-.22-.42-.39s-.14-.49-.14-.95v-2.42Z" style="fill: #fdfdfd; stroke-width: 0px;"/>
    <path d="m71.25,37.17v-3.78h2.14v.38h-1.63v1.28h1.48v.38h-1.48v1.74h-.51Z" style="fill: #fdfdfd; stroke-width: 0px;"/>
    <path d="m73.88,33.38h.51v2.48c0,.33.03.55.08.67.06.12.14.21.26.27.12.06.25.09.39.09.15,0,.28-.03.4-.1.12-.07.21-.17.26-.32.06-.14.08-.41.08-.81v-2.29h.47v2.47c0,.35-.05.63-.16.83s-.25.35-.42.45c-.17.1-.39.15-.66.15-.24,0-.46-.04-.64-.13-.19-.09-.33-.22-.42-.39s-.14-.49-.14-.95v-2.42Z" style="fill: #fdfdfd; stroke-width: 0px;"/>
    <path d="m77.74,37.17v-3.37h-1.17v-.42h2.84v.42h-1.17v3.37h-.51Z" style="fill: #fdfdfd; stroke-width: 0px;"/>
    <path d="m79.66,33.38h.51v2.48c0,.33.03.55.08.67.06.12.14.21.26.27.12.06.25.09.39.09.15,0,.28-.03.4-.1.12-.07.21-.17.26-.32.06-.14.08-.41.08-.81v-2.29h.47v2.47c0,.35-.05.63-.16.83s-.25.35-.42.45c-.17.1-.39.15-.66.15-.24,0-.46-.04-.64-.13-.19-.09-.33-.22-.42-.39s-.14-.49-.14-.95v-2.42Z" style="fill: #fdfdfd; stroke-width: 0px;"/>
    <path d="m83.11,35.56v1.61h-.51v-3.78h1.04c.34,0,.59.03.75.1.16.07.28.17.37.31.09.14.13.28.13.44,0,.15-.03.29-.09.44-.06.15-.14.28-.24.4-.1.12-.25.23-.45.33l1.13,1.77h-.6l-1.03-1.61h-.51Zm0-.38h.71c.16-.08.28-.17.36-.26.08-.09.14-.18.18-.28.04-.1.06-.2.06-.3,0-.18-.07-.32-.2-.42-.13-.1-.37-.16-.72-.16h-.38v1.42Z" style="fill: #fdfdfd; stroke-width: 0px;"/>
    <path d="m86.65,33.27c.44,0,.78.18,1.01.54.23.36.35.85.35,1.46s-.12,1.1-.35,1.47c-.23.36-.57.54-1.01.54s-.78-.18-1.01-.54c-.23-.36-.35-.85-.35-1.47s.12-1.1.35-1.46c.23-.36.57-.54,1.01-.54Zm-.76,2.82l1.35-2.05c-.09-.15-.18-.25-.28-.31-.1-.05-.2-.08-.31-.08-.28,0-.49.15-.64.45-.15.3-.22.68-.22,1.15,0,.11,0,.22,0,.34,0,.12.04.29.09.5Zm1.51-1.6l-1.34,2.06c.07.12.15.21.25.27s.2.09.31.09c.32,0,.54-.17.68-.52.13-.35.2-.73.2-1.15,0-.26-.03-.51-.1-.75Z" style="fill: #fdfdfd; stroke-width: 0px;"/>
    <path d="m89.71,35.62c-.15-.08-.27-.16-.34-.23-.07-.08-.13-.16-.16-.24-.04-.08-.05-.17-.05-.28,0-.09.02-.21.05-.36l.06-.28c.03-.15.05-.26.05-.34,0-.1-.04-.18-.12-.25-.08-.07-.24-.1-.49-.1h-.39v-.38h.39c.46,0,.75.07.89.22.13.14.2.31.2.49,0,.1-.01.2-.04.31l-.05.2-.04.21-.03.13c-.01.06-.02.12-.02.18,0,.15.05.28.16.39.11.11.29.16.55.16h.22v.38h-.22c-.26,0-.44.05-.55.16-.11.11-.16.24-.16.4,0,.06,0,.11.02.17l.03.13.04.21.05.2c.03.11.04.22.04.31,0,.18-.07.34-.2.48-.13.14-.43.21-.89.21h-.39v-.38h.39c.25,0,.41-.03.49-.1.08-.07.12-.15.12-.25,0-.07-.02-.18-.05-.34l-.06-.28c-.03-.15-.05-.27-.05-.36,0-.1.02-.2.05-.28.04-.08.09-.16.16-.24.07-.08.19-.15.34-.23Z" style="fill: #fdfdfd; stroke-width: 0px;"/>
  </g>
  <path d="m40.46,33.03l.6-.64h.44l-.7.64h-.34Z" style="fill: #fdfdfd; stroke-width: 0px;"/>
</svg>