<?xml version="1.0" encoding="UTF-8"?>
<svg id="Capa_1" xmlns="http://www.w3.org/2000/svg" viewBox="0 0 850.6 163.4">
  <defs>
    <style>
      .cls-1 {
        fill: #ee7d00;
      }
    </style>
  </defs>
  <g>
    <path class="cls-1" d="M44.05,138.67C15.34,138.67,0,118.16,0,88s17.59-51.32,43.52-51.32c14.95,0,25,6.61,32.41,16.53l-12.96,9.66c-5.03-6.75-10.85-10.85-19.58-10.85-14.81,0-23.68,14.02-23.68,35.72s8.99,35.58,24.34,35.58c8.33,0,15.21-4.9,20.9-12.96l12.43,10.58c-8.47,12.04-20.24,17.73-33.34,17.73Z"/>
    <path class="cls-1" d="M118.26,138.14c-21.69,0-36.11-15.08-36.11-38.62s14.42-38.63,36.11-38.63,36.25,15.21,36.25,38.63-14.55,38.62-36.25,38.62ZM118.26,74.91c-10.05,0-17.06,8.73-17.06,24.61s7.01,24.6,17.06,24.6,17.2-8.86,17.2-24.6-7.14-24.61-17.2-24.61Z"/>
    <path class="cls-1" d="M213.63,136.68v-9.26c-6.22,7.8-13.36,10.71-21.83,10.71-17.73,0-30.03-15.21-30.03-38.62s12.7-38.63,30.03-38.63c9.39,0,15.74,3.57,20.9,9.13v-33.34h18.39v100h-17.46ZM212.7,83.51c-3.84-3.97-9.39-8.47-15.74-8.47-10.98,0-16.14,10.32-16.14,24.74,0,13.62,5.03,24.21,15.87,24.21,5.82,0,11.11-3.71,16.01-9.26v-31.22Z"/>
    <path class="cls-1" d="M244.58,51.23v-14.55h18.65v14.55h-18.65ZM244.71,136.68V62.34h18.39v74.34h-18.39Z"/>
    <path class="cls-1" d="M322.76,136.68v-46.17c0-8.73-2.25-13.89-10.05-13.89-5.82,0-12.96,3.97-17.73,7.67v52.38h-18.39V62.34h17.46v8.47c7.01-5.29,15.21-9.92,24.87-9.92,14.55,0,22.22,8.99,22.22,22.49v53.31h-18.39Z"/>
    <path class="cls-1" d="M385.06,163.4c-13.49,0-23.68-3.84-32.28-10.45l8.2-11.77c6.48,5.03,14.29,8.47,23.81,8.47,11.77,0,17.59-6.22,17.59-16.01v-7.01c-6.09,6.22-12.57,9.13-21.3,9.13-17.33,0-30.03-14.15-30.03-37.3s12.44-37.57,30.03-37.57c9.52,0,16.01,3.7,21.83,10.05v-8.6h17.46v72.23c0,17.2-11.37,28.84-35.32,28.84ZM401.99,83.51c-4.1-4.23-9.66-8.47-16.01-8.47-10.58,0-15.87,9.26-15.87,23.28s5.16,23.28,16.14,23.28c6.48,0,11.91-4.1,15.74-7.94v-30.16Z"/>
  </g>
  <g>
    <path class="cls-1" d="M547.37,136.68h-25.4v-42.07h-28.97v42.07h-25.4V38.53h25.4v36.24h28.97v-36.24h25.4v98.15Z"/>
    <path class="cls-1" d="M607.56,128.61c-7.41,5.29-15.34,9.52-25.26,9.52-14.95,0-22.49-9.26-22.49-22.88v-53.7h24.34v44.71c0,8.47.93,12.7,7.28,12.7,4.63,0,10.71-3.71,14.81-7.28v-50.13h24.34v75.13h-23.02v-8.07Z"/>
    <path class="cls-1" d="M665.23,136.68h-23.02V36.68h24.34v32.28c5.16-5.29,11.11-8.73,20.5-8.73,17.59,0,29.76,15.08,29.76,38.89s-12.04,38.89-29.9,38.89c-7.8,0-15.34-2.51-21.69-9.79v8.47ZM666.55,112.34c3.7,4.23,8.47,7.8,13.1,7.8,9.53,0,12.04-9.53,12.04-20.77,0-12.04-2.78-21.3-12.3-21.3-5.42,0-10.45,5.16-12.83,7.94v26.32Z"/>
    <path class="cls-1" d="M763.91,89.59c15.74,4.9,23.94,10.32,23.94,24.07,0,17.46-16.93,24.47-34.39,24.47-12.04,0-23.28-2.91-32.67-10.71l10.32-14.15c6.88,5.03,15.87,8.33,22.22,8.33,8.07,0,10.18-2.64,10.18-4.89,0-2.38-1.19-4.1-9.92-6.88l-7.94-2.51c-13.76-4.23-21.3-9.92-21.3-23.55,0-9.92,6.48-23.68,32.67-23.68,10.98,0,21.17,3.18,30.16,9.53l-10.32,14.15c-6.48-4.37-13.49-7.14-19.71-7.14s-8.47,2.25-8.47,4.5c0,3.04,1.72,3.97,7.41,5.95l7.8,2.51Z"/>
  </g>
  <g>
    <path class="cls-1" d="M850.6,109.77c0,6.06-3.72,9.14-8.4,7.79-4.3-1.25-8.5-2.95-12.56-4.86-3.24-1.52-4.34-4.42-3-7.85,1.26-3.24,3.73-5.47,7.23-4.44,4.79,1.41,9.48,3.33,13.95,5.56,1.54.77,2.3,3.1,2.78,3.8ZM844.11,112.51c.24-.62.48-1.24.72-1.86-3.92-1.54-7.84-3.08-11.76-4.62-.24.63-.49,1.25-.73,1.88,3.92,1.53,7.84,3.06,11.76,4.59Z"/>
    <path class="cls-1" d="M844.69,54.03c4.38,4.19,4.04,9.01-.17,11.45-3.87,2.25-8.01,4.1-12.19,5.72-3.34,1.29-6.19.08-7.75-3.26-1.47-3.15-1.38-6.47,1.79-8.29,4.33-2.49,8.96-4.55,13.66-6.24,1.62-.58,3.83.48,4.66.62ZM842.19,60.61c-.28-.6-.56-1.2-.84-1.81-3.82,1.77-7.64,3.54-11.46,5.31.28.61.57,1.22.85,1.83,3.82-1.78,7.63-3.55,11.45-5.33Z"/>
    <path class="cls-1" d="M814.29,16.47c5.97,1.05,8.36,5.25,6.21,9.62-1.97,4.02-4.38,7.86-6.96,11.52-2.06,2.92-5.1,3.5-8.25,1.59-2.97-1.8-4.74-4.62-3.11-7.89,2.22-4.47,4.93-8.75,7.89-12.77,1.02-1.38,3.45-1.72,4.22-2.08ZM815.87,23.34c-.57-.34-1.14-.69-1.7-1.03-2.2,3.59-4.39,7.19-6.59,10.78.57.35,1.15.7,1.72,1.05,2.19-3.6,4.38-7.19,6.57-10.79Z"/>
    <path class="cls-1" d="M777.85.04c6.04-.45,9.4,3.03,8.39,7.8-.92,4.38-2.31,8.7-3.91,12.88-1.28,3.34-4.09,4.65-7.61,3.57-3.32-1.02-5.73-3.31-4.96-6.88,1.05-4.88,2.62-9.7,4.51-14.32.65-1.59,2.92-2.52,3.58-3.05ZM781.06,6.31c-.64-.19-1.27-.39-1.91-.58-1.24,4.02-2.49,8.05-3.73,12.07.64.2,1.29.39,1.93.59,1.24-4.02,2.47-8.05,3.71-12.07Z"/>
  </g>
</svg>